<?xml version="1.0" standalone="no"?>
<!DOCTYPE svg PUBLIC "-//W3C//DTD SVG 20010904//EN"
 "http://www.w3.org/TR/2001/REC-SVG-20010904/DTD/svg10.dtd">
<svg version="1.0" xmlns="http://www.w3.org/2000/svg"
 width="974.000000pt" height="974.000000pt" viewBox="0 0 974.000000 974.000000"
 preserveAspectRatio="xMidYMid meet">
<metadata>
Created by potrace 1.14, written by Peter Selinger 2001-2017
</metadata>
<g transform="translate(0.000000,974.000000) scale(0.100000,-0.100000)"
fill="#000000" stroke="none">
<path d="M4618 9145 c-1 -1 -43 -6 -93 -9 -102 -8 -164 -14 -215 -22 -19 -2
-51 -7 -70 -9 -19 -3 -45 -7 -57 -9 -11 -3 -43 -8 -70 -11 -26 -4 -97 -19
-158 -32 -60 -14 -128 -29 -150 -33 -22 -5 -69 -17 -105 -28 -102 -30 -155
-46 -160 -47 -12 -2 -87 -27 -105 -35 -11 -4 -80 -31 -153 -60 -271 -105 -460
-200 -722 -363 -80 -50 -149 -95 -155 -99 -5 -4 -57 -43 -115 -85 -183 -133
-307 -241 -495 -428 -223 -223 -371 -403 -539 -655 -224 -335 -370 -631 -503
-1015 -37 -107 -80 -252 -98 -325 -34 -147 -41 -179 -60 -280 -3 -14 -7 -36
-10 -50 -3 -14 -8 -45 -11 -70 -3 -25 -7 -56 -10 -70 -2 -14 -7 -49 -10 -79
-3 -30 -7 -63 -9 -73 -10 -47 -19 -271 -19 -438 0 -235 12 -453 30 -555 3 -16
7 -46 10 -65 12 -97 31 -203 79 -420 1 -8 8 -35 15 -60 7 -25 14 -52 15 -60
21 -95 138 -427 195 -555 12 -27 29 -66 38 -85 149 -341 411 -752 668 -1047
138 -158 326 -346 453 -452 24 -20 53 -45 66 -56 45 -40 179 -142 293 -222
256 -179 525 -325 867 -468 228 -96 638 -210 895 -249 19 -3 46 -8 59 -10 13
-3 46 -8 75 -11 28 -3 103 -12 166 -19 114 -13 758 -16 807 -3 12 3 53 9 90
12 37 4 111 13 163 21 52 8 111 17 130 20 19 3 41 7 49 10 8 2 30 7 48 10 19
3 87 19 151 35 64 16 127 32 139 34 98 22 422 138 596 214 26 11 51 22 55 23
16 6 251 127 297 153 140 78 423 262 482 312 12 10 34 27 49 38 26 19 172 138
238 195 75 64 341 335 419 427 247 293 451 606 612 940 41 85 75 157 75 160 0
3 7 19 15 36 72 158 198 549 231 720 2 10 5 26 8 35 3 9 7 28 10 42 2 14 11
63 20 110 9 47 18 101 21 120 7 63 17 135 20 152 14 70 20 229 20 503 0 317
-4 399 -30 591 -8 56 -12 80 -31 194 -39 222 -141 592 -209 755 -7 17 -25 62
-40 100 -159 398 -460 892 -730 1194 -166 187 -322 342 -485 481 -14 12 -36
31 -50 43 -14 12 -81 63 -150 114 -69 51 -130 98 -137 103 -24 19 -231 149
-323 202 -52 30 -158 85 -235 122 -77 38 -148 72 -159 78 -10 5 -71 30 -135
54 -64 25 -125 49 -136 54 -26 12 -230 79 -258 84 -12 3 -62 17 -112 31 -86
24 -335 77 -420 89 -22 3 -50 7 -61 10 -25 5 -181 23 -274 32 -69 6 -596 15
-602 9z"/>
</g>
</svg>
